<svg width="20" height="20" viewBox="0 0 20 20" fill="none" xmlns="http://www.w3.org/2000/svg">
<path d="M9.99999 1.6665C5.39999 1.6665 1.66666 5.39984 1.66666 9.99984C1.66666 14.5998 5.39999 18.3332 9.99999 18.3332H14.1667V16.6665H9.99999C6.38332 16.6665 3.33332 13.6165 3.33332 9.99984C3.33332 6.38317 6.38332 3.33317 9.99999 3.33317C13.6167 3.33317 16.6667 6.38317 16.6667 9.99984V11.1915C16.6667 11.8498 16.075 12.4998 15.4167 12.4998C14.7583 12.4998 14.1667 11.8498 14.1667 11.1915V9.99984C14.1667 7.69984 12.3 5.83317 9.99999 5.83317C7.69999 5.83317 5.83332 7.69984 5.83332 9.99984C5.83332 12.2998 7.69999 14.1665 9.99999 14.1665C11.15 14.1665 12.2 13.6998 12.95 12.9415C13.4917 13.6832 14.425 14.1665 15.4167 14.1665C17.0583 14.1665 18.3333 12.8332 18.3333 11.1915V9.99984C18.3333 5.39984 14.6 1.6665 9.99999 1.6665ZM9.99999 12.4998C8.61666 12.4998 7.49999 11.3832 7.49999 9.99984C7.49999 8.6165 8.61666 7.49984 9.99999 7.49984C11.3833 7.49984 12.5 8.6165 12.5 9.99984C12.5 11.3832 11.3833 12.4998 9.99999 12.4998Z" fill="white"/>
</svg>
